<?xml version="1.0" encoding="UTF-8" standalone="no"?>
<svg
   viewBox="1 -23 75.146627 93.7500025"
   version="1.1"
   x="0px"
   y="0px"
   id="svg8"
   sodipodi:docname="noun_pastry_2832232.svg"
   inkscape:version="1.1.1 (3bf5ae0d25, 2021-09-20)"
   xmlns:inkscape="http://www.inkscape.org/namespaces/inkscape"
   xmlns:sodipodi="http://sodipodi.sourceforge.net/DTD/sodipodi-0.dtd"
   xmlns="http://www.w3.org/2000/svg"
   xmlns:svg="http://www.w3.org/2000/svg">
  <defs
     id="defs12" />
  <sodipodi:namedview
     id="namedview10"
     pagecolor="#505050"
     bordercolor="#eeeeee"
     borderopacity="1"
     inkscape:pageshadow="0"
     inkscape:pageopacity="0"
     inkscape:pagecheckerboard="0"
     showgrid="false"
     inkscape:zoom="5.5466667"
     inkscape:cx="37.590144"
     inkscape:cy="75.811298"
     inkscape:window-width="1366"
     inkscape:window-height="705"
     inkscape:window-x="-8"
     inkscape:window-y="-8"
     inkscape:window-maximized="1"
     inkscape:current-layer="svg8" />
  <path
     style=""
     d="m 44.040268,-19.607303 c -0.04294,-0.002 -0.08715,-10e-4 -0.132698,0.002 -4.008106,0.25226 -5.743095,2.9331 -6.483829,4.94661 -4.709282,0.28953 -7.822938,2.993509 -7.826951,7.5141688 -0.0017,1.81629 0.443067,3.72594 1.228521,5.39317 h -4.972464 -7.845909 c -3.380318,0 -6.130546,2.74965996 -6.130546,6.13055 V 18.241696 c -2.9314049,0.88463 -5.0722029,3.60949 -5.0722029,6.82526 l -4.309e-4,16.74973 H 4.3958297 c -1.8724756,0 -3.3958296,1.52335 -3.3958296,3.39583 0,1.87248 1.523354,3.39583 3.3958296,3.39583 H 72.750796 c 1.872476,0 3.395831,-1.52335 3.395831,-3.39583 0,-1.87248 -1.523355,-3.39583 -3.395831,-3.39583 h -2.407282 l -6.46e-4,-16.74973 c 0,-3.21577 -2.140799,-5.94077 -5.072203,-6.82483 L 65.270019,4.3791958 c 0,-3.38032004 -2.750228,-6.13055 -6.130545,-6.13055 h -5.399421 c 1.882795,-3.39981 2.6367,-7.28354 2.929668,-9.4942798 0.240222,-1.812849 -1.143198,-3.164059 -2.933115,-2.916959 -2.060525,0.28437 -5.026939,0.8909 -7.878652,2.175709 -1.57604,-1.577209 -3.830316,-2.379309 -6.065705,-2.618389 0.689135,-1.38171 1.949787,-2.65788 4.253403,-2.80235 1.403514,-0.0883 1.325829,-2.15135 -0.0054,-2.19941 z m -5.759383,7.12362 h 0.01099 c 3.647488,0.003 7.326317,1.659749 7.322877,5.3530988 -0.0012,1.70679 -0.875952,3.73238 -2.305821,5.37896 h -9.986075 c -0.96261,-1.55657 -1.526225,-3.53116 -1.524504,-5.39102 0.0029,-3.7202998 2.747331,-5.3410388 6.482536,-5.3410388 z m 14.492377,0.702259 -4.963632,4.9638398 c 0.0493,-1.14779 -0.152696,-2.29894 -0.64862,-3.3372298 1.957328,-0.83189 3.961654,-1.32963 5.612252,-1.62661 z m -16.162288,1.23067 c -0.116314,0.005 -0.239309,0.0293 -0.367716,0.076 -1.782464,0.6501498 -2.805807,2.1345498 -2.807527,4.0735398 -0.0011,1.45681 2.200413,1.47387 2.20156,0.002 5.72e-4,-1.01765 0.445474,-1.67415 1.359926,-2.00725 1.239704,-0.45151 0.738131,-2.1931298 -0.386243,-2.1444798 z m 17.663312,0.38151 c -0.423113,2.3729798 -1.304357,5.7178398 -3.108033,8.4176198 h -5.106454 c 0.845653,-1.30431 -0.98736,0.94589996 8.214487,-8.4176198 z M 18.006938,0.44993576 h 7.845909 33.287273 c 2.166017,0 3.928986,1.76240004 3.928986,3.92899004 v 3.8803 c -1.465417,0.85138 -2.526045,1.9600702 -4.618104,1.9600702 -3.132642,0 -3.286323,-2.7902902 -6.627082,-2.7902902 -3.34133,0 -3.482396,2.7902902 -6.625357,2.7902902 -3.133215,0 -3.285677,-2.7902902 -6.626435,-2.7902902 -3.341331,0 -3.482395,2.7902902 -6.625357,2.7902902 -3.106842,0 -3.311547,-2.7902902 -6.625357,-2.7902902 -3.341333,0 -3.482828,2.7902902 -6.625789,2.7902902 -2.03186,0 -3.155125,-1.0773002 -4.617674,-1.9258202 v -3.91455 c 0,-2.16659 1.762396,-3.92899004 3.928987,-3.92899004 z m 7.314044,9.18128004 c 2.127032,0 2.656021,2.7896402 6.625143,2.7896402 3.985746,0 4.487504,-2.7896402 6.626003,-2.7896402 2.146524,0 2.629938,2.7896402 6.626004,2.7896402 3.985748,0 4.486718,-2.7896402 6.625788,-2.7896402 2.146525,0 2.629795,2.7896402 6.626435,2.7896402 2.106392,0 3.50127,-0.81685 4.618104,-1.54841 l 6.47e-4,7.06739 h -4.832013 c -1.455669,0 -1.457388,2.20156 0,2.20156 h 4.978712 c 2.715834,0 4.925504,2.20946 4.925504,4.92529 l 6.46e-4,4.77579 c -1.808837,1.02396 -3.110969,2.44067 -5.752273,2.44067 -3.896882,0 -4.007403,-3.34305 -7.939831,-3.34305 -3.915228,0 -4.051833,3.34305 -7.938969,3.34305 -3.896882,0 -4.006325,-3.34305 -7.938754,-3.34305 -3.919242,0 -4.046456,3.34305 -7.938753,3.34305 -3.865348,0 -4.038001,-3.34305 -7.938323,-3.34305 -3.915802,0 -4.051691,3.34305 -7.9394,3.34305 -2.56505,0 -3.946658,-1.37643 -5.7503346,-2.39867 l 4.308e-4,-4.81779 c -5.723e-4,-2.71583 2.2090958,-4.92529 4.9255038,-4.92529 h 39.829912 c 1.455095,0 1.457389,-2.20156 0,-2.20156 H 14.07752 l 4.31e-4,-7.04671 c 1.139767,0.72583 2.557648,1.52773 4.617028,1.52773 3.976,0 4.501838,-2.7896402 6.626003,-2.7896402 z M 22.694406,31.141656 c 2.663089,0 3.2681,3.34305 7.938969,3.34305 4.724188,0 5.229726,-3.34305 7.938107,-3.34305 2.686595,0 3.23757,3.34305 7.9394,3.34305 4.724762,0 5.230014,-3.34305 7.938969,-3.34305 2.686024,0 3.238001,3.34305 7.939831,3.34305 2.667102,0 4.371112,-1.12819 5.74021,-2.03461 0.0034,-0.003 0.0074,-0.005 0.01142,-0.008 l 6.46e-4,9.37451 H 9.0046712 l 6.462e-4,-9.34349 c 1.3989106,0.90242 3.1399916,2.01178 5.7503346,2.01178 4.724761,0 5.229799,-3.34305 7.938754,-3.34305 z M 4.3958297,44.017976 H 72.750796 c 1.580654,0 1.578361,2.38789 0,2.38789 H 4.3958297 c -1.5806536,0 -1.5783605,-2.38789 0,-2.38789 z"
     stroke-width="0.14677089"
     id="path2" />
</svg>
