<?xml version="1.0" encoding="UTF-8" standalone="no"?>
<svg
   version="1.1"
   x="0px"
   y="0px"
   viewBox="0 0 256.941 331.39000000000004"
   style="enable-background:new 0 0 256.941 265.112;"
   xml:space="preserve"
   id="svg48"
   sodipodi:docname="noun_pastry_974176.svg"
   inkscape:version="1.1.1 (3bf5ae0d25, 2021-09-20)"
   xmlns:inkscape="http://www.inkscape.org/namespaces/inkscape"
   xmlns:sodipodi="http://sodipodi.sourceforge.net/DTD/sodipodi-0.dtd"
   xmlns="http://www.w3.org/2000/svg"
   xmlns:svg="http://www.w3.org/2000/svg"><defs
     id="defs52" /><sodipodi:namedview
     id="namedview50"
     pagecolor="#505050"
     bordercolor="#eeeeee"
     borderopacity="1"
     inkscape:pageshadow="0"
     inkscape:pageopacity="0"
     inkscape:pagecheckerboard="0"
     showgrid="false"
     inkscape:zoom="1.5691481"
     inkscape:cx="129.68821"
     inkscape:cy="123.95261"
     inkscape:window-width="1366"
     inkscape:window-height="705"
     inkscape:window-x="-8"
     inkscape:window-y="-8"
     inkscape:window-maximized="1"
     inkscape:current-layer="svg48" /><g
     id="g42"
     transform="translate(0,32)"><path
       d="m 219.427,259.75 h 14 v -60.387 c -3.018,0 -7.868,0 -14,0 z"
       id="path2" /><path
       d="m 245.904,144.85 c -3.023,0 -67.516,0 -111.39,0 0.011,0.936 0.029,1.857 0.03,2.811 0,6.084 -0.203,12.646 -0.602,19.514 -0.43,7.395 -6.568,13.187 -13.973,13.187 -0.285,0 -0.574,-0.009 -0.859,-0.028 -2.826,-0.166 -5.412,-1.171 -7.527,-2.762 v 18.043 c 32.367,0 126.173,0 128.014,0 5.571,0 11.017,13.43 14.277,16.055 1.906,1.535 3.066,-0.621 3.066,-11.324 10e-4,-40.522 -0.63,-55.496 -11.036,-55.496 z"
       id="path4" /><path
       d="m 96.266,103.285 9.317,45.113 V 135.81 102.791 c 0.592,1.216 1.191,2.611 1.781,4.24 2.818,7.811 5.188,20.63 5.178,40.637 0.002,5.515 -0.176,11.574 -0.564,18.225 -0.258,4.409 3.109,8.193 7.521,8.453 0.156,0.01 0.314,0.014 0.469,0.014 4.209,0 7.736,-3.282 7.984,-7.535 0.402,-6.934 0.592,-13.301 0.592,-19.156 -0.041,-30.182 -4.861,-46.886 -11.434,-56.93 -3.285,-4.986 -7.129,-8.184 -10.68,-9.955 -2.582,-1.303 -4.92,-1.839 -6.689,-2.034 z"
       id="path6" /><path
       d="m 51.492,196.608 v 56.141 c 0,6.83 5.537,12.363 12.363,12.363 6.828,0 12.365,-5.533 12.365,-12.363 v -50.596 c -10.098,-0.4 -19.796,-3.63 -24.728,-5.545 z"
       id="path8" /><polygon
       points="65.328,101.949 78.261,101.949 91.744,101.949 95.048,78.628 91.627,78.628 93.168,72.628 93.287,72.166 91.876,72.628 80.713,76.281 80.713,84.749 76.713,84.749 76.713,76.396 65.198,72.628 63.787,72.166 63.906,72.628 65.447,78.628 62.024,78.628 "
       id="polygon10" /><path
       d="m 80.855,202.131 v 50.618 c 0,6.83 5.537,12.363 12.363,12.363 6.828,0 12.365,-5.533 12.365,-12.363 v -56.357 c -4.648,1.842 -14.435,5.226 -24.728,5.739 z"
       id="path12" /><path
       d="m 82.196,72.628 c 10.685,-1.748 18.841,-11.019 18.841,-22.199 0,-1.674 -0.188,-3.302 -0.535,-4.871 -4.346,-1.085 -14.739,-3.475 -21.965,-3.475 -7.227,0 -17.619,2.39 -21.965,3.475 -0.347,1.569 -0.535,3.197 -0.535,4.871 0,11.181 8.156,20.451 18.841,22.199 1.191,0.195 2.413,0.301 3.659,0.301 1.246,0 2.468,-0.106 3.659,-0.301 z"
       id="path14" /><path
       d="m 55.537,43.416 c 0,0 14.041,-4 23,-4 8.957,0 23,4 23,4 L 101.05,34.69 c 0.51,-0.102 1.004,-0.245 1.487,-0.412 4.507,-1.557 7.75,-5.826 7.75,-10.862 0,-6.352 -5.15,-11.5 -11.5,-11.5 -1.022,0 -2.009,0.146 -2.953,0.396 -0.154,3.681 -1.454,7.063 -3.563,9.805 1.013,-2.048 1.598,-4.345 1.598,-6.784 C 93.869,6.864 87.004,0 78.535,0 70.068,0 63.203,6.864 63.203,15.333 c 0,2.437 0.584,4.731 1.595,6.777 -2.104,-2.74 -3.403,-6.119 -3.558,-9.797 -0.944,-0.251 -1.931,-0.397 -2.953,-0.397 -6.352,0 -11.5,5.148 -11.5,11.5 0,5.036 3.242,9.306 7.75,10.862 0.483,0.167 0.976,0.311 1.486,0.412 z"
       id="path16" /><path
       d="m 41.197,173.229 c 2.23,-1.331 3.741,-3.707 3.894,-6.415 1.785,-0.729 3.543,-1.927 4.409,-2.924 1.719,-1.98 1.506,-4.982 -0.475,-6.7 -1.244,-1.079 -2.888,-1.396 -4.365,-0.993 -0.089,-2.978 -0.133,-5.82 -0.133,-8.529 -0.033,-24.215 3.496,-37.819 6.965,-44.918 v 33.06 9.913 l 9.041,-43.774 h 0.084 l -3.287,-23.2 c -1.77,0.195 -4.105,0.731 -6.689,2.034 -5.379,2.666 -11.178,8.502 -15.236,18.841 -4.105,10.379 -6.863,25.386 -6.877,48.044 0,5.857 0.189,12.225 0.594,19.158 0.06,1.01 0.309,1.961 0.702,2.83 l -4.142,4.774 -15.641,18.026 c -1.434,1.65 -1.256,4.151 0.396,5.583 l 0.598,0.52 -2.564,2.954 c -2.412,-0.033 -5.953,2.029 -7.308,3.592 -1.719,1.981 -1.506,4.982 0.475,6.7 1.984,1.72 4.984,1.507 6.701,-0.475 1.356,-1.562 2.9,-5.358 2.525,-7.741 l 2.564,-2.956 0.598,0.519 c 1.65,1.434 4.15,1.257 5.584,-0.395 l 17.706,-20.406 3.048,-3.512 c 0.891,-1.028 1.157,-2.386 0.833,-3.61 z"
       id="path18" /><rect
       x="146.285"
       y="134.25"
       width="72"
       height="5.3330002"
       id="rect20" /><path
       d="m 157.696,117.859 c 0.83,0.977 1.439,1.616 2.729,1.63 1.286,-0.014 1.895,-0.653 2.725,-1.63 0.769,-0.895 1.646,-2.31 3.521,-2.354 1.871,0.045 2.748,1.46 3.521,2.354 0.827,0.977 1.436,1.616 2.725,1.63 1.286,-0.014 1.896,-0.653 2.725,-1.63 0.769,-0.895 1.646,-2.31 3.521,-2.354 1.871,0.045 2.749,1.46 3.521,2.354 0.826,0.977 1.436,1.616 2.725,1.63 1.289,-0.014 1.895,-0.653 2.725,-1.63 0.77,-0.895 1.646,-2.31 3.521,-2.354 1.871,0.045 2.752,1.46 3.52,2.354 0.827,0.977 1.436,1.616 2.726,1.63 1.286,-0.014 1.895,-0.653 2.725,-1.63 0.769,-0.897 1.646,-2.31 3.524,-2.354 1.871,0.045 2.749,1.46 3.518,2.354 0.83,0.977 1.436,1.616 2.725,1.63 0.702,-0.008 1.2,-0.205 1.644,-0.537 v -9.536 h -59.5 v 6.569 c 0.452,-0.273 0.983,-0.465 1.644,-0.48 1.868,0.045 2.746,1.46 3.515,2.354 z"
       id="path22" /><path
       d="m 210.391,121.489 c -2.163,0.014 -3.449,-1.34 -4.266,-2.354 -0.878,-1.096 -1.398,-1.674 -1.977,-1.63 -0.585,-0.044 -1.105,0.534 -1.983,1.63 -0.816,1.014 -2.105,2.367 -4.266,2.354 -2.164,0.014 -3.45,-1.34 -4.267,-2.354 -0.877,-1.096 -1.397,-1.674 -1.979,-1.63 -0.582,-0.044 -1.103,0.534 -1.98,1.63 -0.816,1.014 -2.105,2.367 -4.266,2.354 -2.163,0.014 -3.449,-1.34 -4.266,-2.354 -0.878,-1.096 -1.398,-1.674 -1.98,-1.63 -0.581,-0.044 -1.102,0.534 -1.979,1.63 -0.82,1.014 -2.105,2.367 -4.267,2.354 -2.163,0.014 -3.449,-1.34 -4.266,-2.354 -0.881,-1.096 -1.401,-1.674 -1.98,-1.63 -0.582,-0.044 -1.102,0.534 -1.98,1.63 -0.819,1.014 -2.105,2.367 -4.266,2.354 -2.164,0.014 -3.449,-1.34 -4.27,-2.354 -0.878,-1.096 -1.398,-1.674 -1.977,-1.63 -0.505,-0.038 -0.963,0.39 -1.644,1.212 v 11.198 h 59.5 v -8.719 c -0.477,0.177 -1.006,0.292 -1.611,0.292 -0.008,0.001 -0.019,0.001 -0.03,0.001 z"
       id="path24" /><path
       d="m 202.166,96.802 c -0.816,1.014 -2.105,2.367 -4.266,2.354 -2.164,0.014 -3.45,-1.34 -4.267,-2.354 -0.877,-1.096 -1.397,-1.674 -1.979,-1.629 -0.582,-0.045 -1.103,0.533 -1.98,1.629 -0.816,1.014 -2.105,2.367 -4.266,2.354 -2.163,0.014 -3.449,-1.34 -4.266,-2.354 -0.878,-1.096 -1.398,-1.674 -1.98,-1.629 -0.581,-0.045 -1.102,0.533 -1.979,1.629 -0.82,1.014 -2.105,2.367 -4.267,2.354 -2.163,0.014 -3.449,-1.34 -4.266,-2.354 -0.881,-1.096 -1.401,-1.674 -1.98,-1.629 -0.582,-0.045 -1.102,0.533 -1.98,1.629 -0.819,1.014 -2.105,2.367 -4.266,2.354 -0.225,10e-4 -0.434,-0.021 -0.64,-0.046 v 8.473 h 45 v -12.21 c -0.218,-0.146 -0.423,-0.216 -0.636,-0.199 -0.584,-0.046 -1.104,0.532 -1.982,1.628 z"
       id="path26" /><path
       d="m 163.149,95.526 c 0.769,-0.898 1.646,-2.313 3.521,-2.354 1.871,0.041 2.748,1.456 3.521,2.354 0.827,0.977 1.436,1.615 2.725,1.629 1.286,-0.014 1.896,-0.652 2.725,-1.629 0.769,-0.898 1.646,-2.311 3.521,-2.354 1.871,0.041 2.749,1.456 3.521,2.354 0.826,0.977 1.436,1.615 2.725,1.629 1.289,-0.014 1.895,-0.652 2.725,-1.629 0.77,-0.898 1.646,-2.313 3.521,-2.354 1.871,0.041 2.752,1.456 3.52,2.354 0.827,0.977 1.436,1.615 2.726,1.629 1.286,-0.014 1.895,-0.652 2.725,-1.629 0.769,-0.898 1.646,-2.313 3.524,-2.354 0.227,0.005 0.437,0.032 0.636,0.074 v -7.664 h -45 V 97.08 c 0.196,0.043 0.403,0.072 0.64,0.075 1.286,-0.013 1.894,-0.652 2.724,-1.629 z"
       id="path28" /><path
       d="m 170.191,72.526 c 0.827,0.976 1.436,1.615 2.725,1.629 1.286,-0.014 1.896,-0.653 2.725,-1.629 0.769,-0.896 1.646,-2.311 3.521,-2.355 1.871,0.041 2.749,1.46 3.521,2.355 0.826,0.976 1.436,1.615 2.725,1.629 1.289,-0.014 1.895,-0.653 2.725,-1.629 0.77,-0.896 1.646,-2.314 3.521,-2.355 1.871,0.041 2.752,1.46 3.52,2.355 0.468,0.552 0.869,0.99 1.36,1.275 V 63 h -28.5 v 7.502 c 0.989,0.479 1.603,1.383 2.157,2.024 z"
       id="path30" /><path
       d="m 193.633,73.802 c -0.877,-1.096 -1.397,-1.674 -1.979,-1.63 -0.582,-0.044 -1.103,0.534 -1.98,1.63 -0.816,1.014 -2.105,2.367 -4.266,2.354 -2.163,0.014 -3.449,-1.34 -4.266,-2.354 -0.878,-1.096 -1.398,-1.674 -1.98,-1.63 -0.581,-0.044 -1.102,0.534 -1.979,1.63 -0.82,1.014 -2.105,2.367 -4.267,2.354 -2.163,0.014 -3.449,-1.34 -4.266,-2.354 -0.227,-0.282 -0.429,-0.528 -0.615,-0.74 V 83.5 h 28.5 v -7.541 c -1.366,-0.406 -2.275,-1.379 -2.902,-2.157 z"
       id="path32" /><rect
       x="173.222"
       y="48.5"
       width="6.5"
       height="11.75"
       id="rect34" /><circle
       cx="176.472"
       cy="43.416"
       r="3.5"
       id="circle36" /><polygon
       points="181.349,60.25 191.597,60.25 189.722,48.5 183.222,48.5 "
       id="polygon38" /><circle
       cx="186.472"
       cy="43.416"
       r="3.5"
       id="circle40" /></g></svg>
