<?xml version="1.0" encoding="UTF-8" standalone="no"?>
<svg
   data-name="Layer 1"
   viewBox="0 0 64 80"
   x="0px"
   y="0px"
   version="1.1"
   id="svg16"
   sodipodi:docname="executiveGirl.svg"
   inkscape:version="1.1.1 (3bf5ae0d25, 2021-09-20)"
   xmlns:inkscape="http://www.inkscape.org/namespaces/inkscape"
   xmlns:sodipodi="http://sodipodi.sourceforge.net/DTD/sodipodi-0.dtd"
   xmlns="http://www.w3.org/2000/svg"
   xmlns:svg="http://www.w3.org/2000/svg">
  <defs
     id="defs20" />
  <sodipodi:namedview
     id="namedview18"
     pagecolor="#505050"
     bordercolor="#eeeeee"
     borderopacity="1"
     inkscape:pageshadow="0"
     inkscape:pageopacity="0"
     inkscape:pagecheckerboard="0"
     showgrid="false"
     inkscape:zoom="6.5"
     inkscape:cx="31.923077"
     inkscape:cy="40.076923"
     inkscape:window-width="1366"
     inkscape:window-height="705"
     inkscape:window-x="-8"
     inkscape:window-y="-8"
     inkscape:window-maximized="1"
     inkscape:current-layer="svg16" />
  <title
     id="title2">manager-women-administrator- dispatcher- engineer</title>
  <path
     d="m 27.794872,25.570105 a 1.073359,1.073359 0 0 1 1.051282,1.092282 h 2.102564 a 3.1538462,3.1538462 0 1 0 -6.307692,0 h 2.102564 a 1.073359,1.073359 0 0 1 1.051282,-1.092282 z"
     id="path4"
     style="stroke-width:1.05128" />
  <path
     d="m 36.205128,25.570105 a 1.073359,1.073359 0 0 1 1.051282,1.092282 h 2.102564 a 3.1538462,3.1538462 0 1 0 -6.307692,0 h 2.102564 a 1.073359,1.073359 0 0 1 1.051282,-1.092282 z"
     id="path6"
     style="stroke-width:1.05128" />
  <path
     d="m 29.897436,33.095182 h -2.102564 c 0,1.787179 1.847102,3.194846 4.205128,3.194846 2.358026,0 4.205128,-1.403462 4.205128,-3.194846 h -2.102564 c 0,0.444692 -0.818949,1.092282 -2.102564,1.092282 -1.283615,0 -2.102564,-0.64759 -2.102564,-1.092282 z"
     id="path8"
     style="stroke-width:1.05128" />
  <path
     d="M 62.487179,63.128207 H 56.179487 V 52.45454 A 7.5061538,7.5061538 0 0 0 49.44182,44.941028 L 47.864897,42.272874 A 31.277744,31.277744 0 0 1 43.644,28.45272 5.5717948,5.5717948 0 0 0 44.615385,25.176925 5.4992564,5.4992564 0 0 0 43.564103,21.788643 V 20.2359 A 11.801692,11.801692 0 0 0 40.183179,11.92131 11.386436,11.386436 0 0 0 32,8.4615406 11.681846,11.681846 0 0 0 20.435897,20.2359 v 1.561154 a 5.4992564,5.4992564 0 0 0 -1.051282,3.379871 5.5717948,5.5717948 0 0 0 0.969282,3.272641 31.273538,31.273538 0 0 1 -4.219846,13.818052 l -1.576923,2.670256 A 7.5061538,7.5061538 0 0 0 7.8205128,52.45454 V 63.128207 H 1.5128205 a 1.051282,1.051282 0 0 0 -1.05128204,1.051282 v 6.307693 A 1.051282,1.051282 0 0 0 1.5128205,71.538464 H 62.487179 a 1.051282,1.051282 0 0 0 1.051282,-1.051282 V 64.179489 A 1.051282,1.051282 0 0 0 62.487179,63.128207 Z M 54.076923,52.45454 v 10.673667 h -8.737205 c -1.083872,-1.560102 -1.775615,-4.426949 -1.775615,-7.524025 0,-5.246949 1.867076,-8.595282 3.153846,-8.595282 h 2.038436 a 5.389923,5.389923 0 0 1 5.320538,5.44564 z M 21.079282,63.128207 a 18.23659,18.23659 0 0 0 1.45918,-7.524025 15.96582,15.96582 0 0 0 -2.120436,-8.686744 7.3421538,7.3421538 0 0 0 3.937051,-1.925949 c 1.15641,1.609513 3.513385,2.763821 6.393897,3.026641 l -2.778538,15.110077 z m 0.407897,-37.951282 c 0,-1.495974 0.68018,-2.410589 1.051283,-2.410589 a 1.051282,1.051282 0 0 0 0.932487,-0.56559 l 2.281282,-4.381744 a 3.339923,3.339923 0 0 1 2.928872,-1.893359 3.082359,3.082359 0 0 1 1.241564,0.264923 5.1228974,5.1228974 0 0 0 4.155718,0 3.2085128,3.2085128 0 0 1 4.169384,1.636846 l 2.281282,4.381744 a 1.051282,1.051282 0 0 0 0.932487,0.56559 c 0.371103,0 1.051282,0.914615 1.051282,2.41059 0,1.495974 -0.680179,2.409538 -1.051282,2.409538 a 1.051282,1.051282 0 0 0 -1.051282,1.051282 10.025026,10.025026 0 0 1 -3.943359,8.123256 L 33.23,39.134797 a 2.0531538,2.0531538 0 0 1 -2.46,0 l -3.236897,-2.368539 a 10.025026,10.025026 0 0 1 -3.943359,-8.120102 1.051282,1.051282 0 0 0 -1.051282,-1.051282 c -0.371103,0 -1.051283,-0.917769 -1.051283,-2.417949 z M 32,45.978643 c -3.364103,0 -5.793615,-1.395051 -6.230949,-2.794307 A 7.585,7.585 0 0 0 26.74359,39.460694 V 38.79313 l 2.783795,2.037385 a 4.1210256,4.1210256 0 0 0 4.941025,0 l 2.788,-2.037385 v 0.667564 a 7.585,7.585 0 0 0 0.974539,3.723642 C 37.793615,44.583592 35.364103,45.978643 32,45.978643 Z m 0,6.863821 1.892308,10.285743 H 30.107692 Z M 36.029564,63.128207 33.251026,48.01813 c 2.880512,-0.26282 5.241692,-1.417128 6.393897,-3.026641 a 7.3421538,7.3421538 0 0 0 3.937051,1.925949 15.96582,15.96582 0 0 0 -2.120436,8.686744 18.23659,18.23659 0 0 0 1.45918,7.524025 z M 46.979718,44.906336 h -2.300205 a 5.389923,5.389923 0 0 1 -5.320539,-5.445642 v -2.503102 a 12.00459,12.00459 0 0 0 2.628205,-4.686616 33.443384,33.443384 0 0 0 4.071616,11.068949 z M 32,10.564105 a 9.2975384,9.2975384 0 0 1 6.681949,2.825846 9.6781026,9.6781026 0 0 1 2.733333,5.974436 l -1.307795,-2.512564 a 5.3342052,5.3342052 0 0 0 -6.87959,-2.591411 3.0329488,3.0329488 0 0 1 -2.465256,0 5.3310512,5.3310512 0 0 0 -6.880641,2.591411 l -1.305692,2.50941 A 9.5540512,9.5540512 0 0 1 32,10.564105 Z m -9.98718,21.706871 a 12.00459,12.00459 0 0 0 2.628206,4.686616 v 2.503102 a 5.389923,5.389923 0 0 1 -5.320539,5.445642 h -2.300205 l 0.92618,-1.568513 A 33.437076,33.437076 0 0 0 22.01282,32.270976 Z M 9.9230767,52.45454 A 5.389923,5.389923 0 0 1 15.243615,47.0089 h 2.038436 c 1.286769,0 3.153846,3.348333 3.153846,8.595282 0,3.097076 -0.691743,5.963923 -1.775615,7.524025 H 9.9230767 Z M 61.435897,69.4359 H 2.5641025 V 65.230771 H 61.435897 Z"
     id="path10"
     style="stroke-width:1.05128" />
</svg>
