<?xml version="1.0" encoding="UTF-8" standalone="no"?>
<svg
   version="1.1"
   x="0px"
   y="0px"
   viewBox="0 0 44 77.59625"
   style="enable-background:new 0 0 44 62.077;"
   xml:space="preserve"
   id="svg32"
   sodipodi:docname="icecream.svg"
   inkscape:version="1.1.1 (3bf5ae0d25, 2021-09-20)"
   xmlns:inkscape="http://www.inkscape.org/namespaces/inkscape"
   xmlns:sodipodi="http://sodipodi.sourceforge.net/DTD/sodipodi-0.dtd"
   xmlns="http://www.w3.org/2000/svg"
   xmlns:svg="http://www.w3.org/2000/svg"><defs
     id="defs36" /><sodipodi:namedview
     id="namedview34"
     pagecolor="#505050"
     bordercolor="#eeeeee"
     borderopacity="1"
     inkscape:pageshadow="0"
     inkscape:pageopacity="0"
     inkscape:pagecheckerboard="0"
     showgrid="false"
     inkscape:zoom="3.3506773"
     inkscape:cx="81.923736"
     inkscape:cy="41.633374"
     inkscape:window-width="1366"
     inkscape:window-height="705"
     inkscape:window-x="-8"
     inkscape:window-y="-8"
     inkscape:window-maximized="1"
     inkscape:current-layer="g26" /><g
     id="g26"><circle
       cx="17"
       cy="44"
       r="1"
       id="circle2" /><circle
       cx="18"
       cy="50"
       r="1"
       id="circle4" /><circle
       cx="24"
       cy="50"
       r="1"
       id="circle6" /><circle
       cx="21"
       cy="56"
       r="1"
       id="circle8" /><circle
       cx="25"
       cy="44"
       r="1"
       id="circle10" /><circle
       cx="14"
       cy="38"
       r="1"
       id="circle12" /><circle
       cx="28"
       cy="38"
       r="1"
       id="circle14" /><circle
       cx="12"
       cy="31"
       r="1"
       id="circle16" /><circle
       cx="21"
       cy="31"
       r="1"
       id="circle18" /><circle
       cx="21"
       cy="38"
       r="1"
       id="circle20" /><circle
       cx="30"
       cy="31"
       r="1"
       id="circle22" /><path
       d="m 31.973,31.641 10.706,-9.059 c 0.84,-0.71 1.322,-1.749 1.322,-2.85 C 44,17.675 42.326,16 40.268,16 h -0.33 c -0.826,0 -1.64,0.279 -2.292,0.786 l -3.675,2.858 1.826,-5.842 C 35.932,13.373 36,12.926 36,12.451 36,9.997 34.003,8 31.549,8 29.582,8 27.873,9.263 27.295,11.143 l -2.625,8.531 c -0.941,-0.559 -1.811,-1.23 -2.59,-2.008 L 21.855,17.441 C 21.94,17.14 22,16.828 22,16.5 22,14.57 20.43,13 18.5,13 c -1.385,0 -2.592,0.813 -3.157,2.016 -0.915,0.042 -1.74,0.426 -2.341,1.04 C 11.184,14.726 8.994,14 6.72,14 H 0 v 4.955 c 0,6.105 4.172,11.321 10.03,12.721 0.031,0.442 0.101,0.88 0.242,1.302 l 0.353,1.059 C 8.046,34.233 6,36.372 6,39 6,40.968 7.154,42.658 8.811,43.473 8.297,44.164 8,45.008 8,45.91 8,47.557 8.984,48.971 10.39,49.618 10.14,50.177 10,50.783 10,51.414 v 0.172 c 0,1.723 1.002,3.203 2.445,3.93 C 12.164,56.103 12,56.743 12,57.414 v 0.172 c 0,2.104 1.482,3.863 3.456,4.303 C 15.162,62.564 15,63.298 15,64.034 c 0,2.214 1.328,4.175 3.382,4.996 L 21,70.077 23.617,69.03 C 25.672,68.209 27,66.248 27,64.034 27,63.297 26.838,62.564 26.544,61.888 28.518,61.449 30,59.69 30,57.586 V 57.414 C 30,56.743 29.836,56.103 29.555,55.515 30.998,54.789 32,53.309 32,51.586 V 51.414 C 32,50.784 31.859,50.177 31.61,49.618 33.016,48.971 34,47.557 34,45.91 34,45.008 33.703,44.164 33.189,43.473 34.846,42.658 36,40.968 36,39 36,36.371 33.954,34.233 31.375,34.038 l 0.353,-1.06 c 0.145,-0.433 0.216,-0.883 0.245,-1.337 z M 38.874,18.365 C 39.176,18.13 39.554,18 39.938,18 h 0.33 c 0.955,0 1.732,0.777 1.732,1.732 0,0.511 -0.224,0.993 -0.613,1.322 l -3.098,2.622 c 0.017,-0.037 0.029,-0.076 0.05,-0.11 l 0.357,-0.567 C 39.08,22.388 39.101,21.614 38.751,20.981 38.411,20.367 37.797,20 37.108,20 c -0.094,0 -0.183,-0.021 -0.27,-0.052 z m -3.673,2.856 c 0.483,0.45 1.09,0.741 1.763,0.775 l -0.319,0.507 c -0.516,0.823 -0.59,1.861 -0.238,2.765 l -4.797,4.059 c -0.113,-0.281 -0.257,-0.545 -0.414,-0.8 l 1.73,-5.536 z M 12.721,34 12.17,32.347 C 12.057,32.009 12,31.657 12,31.302 12,29.481 13.481,28 15.302,28 h 11.396 c 1.821,0 3.302,1.481 3.302,3.302 0,0.355 -0.057,0.707 -0.169,1.044 L 29.279,34 Z M 27.389,17.637 c 0.71,-0.048 1.413,-0.226 2.098,-0.545 0.252,-0.118 0.545,-0.122 0.802,-0.015 0.128,0.054 0.357,0.184 0.454,0.453 0.233,0.646 0.707,1.186 1.316,1.529 l -2.444,7.822 C 29.009,26.48 28.313,26.211 27.568,26.087 27.848,25.49 28,24.832 28,24.171 28,22.83 27.414,21.6 26.429,20.756 Z M 29.207,11.73 C 29.524,10.695 30.466,10 31.549,10 32.9,10 34,11.1 34,12.474 c 0,0.249 -0.038,0.494 -0.112,0.731 L 32.71,16.977 C 32.685,16.934 32.642,16.9 32.625,16.854 32.365,16.13 31.795,15.54 31.06,15.232 c -0.774,-0.321 -1.654,-0.307 -2.482,0.077 -0.171,0.08 -0.351,0.142 -0.533,0.195 z m -4.596,10.194 c 0.857,0.428 1.389,1.289 1.389,2.247 0,0.388 -0.092,0.776 -0.265,1.123 L 25.382,26 H 16.618 L 16.265,25.294 C 16.092,24.947 16,24.559 16,24.171 c 0,-0.958 0.532,-1.819 1.389,-2.247 1.321,-0.66 2.534,-1.507 3.611,-2.52 1.077,1.013 2.29,1.859 3.611,2.52 z M 18.5,15 c 0.827,0 1.5,0.673 1.5,1.5 0,0.667 -0.462,1.221 -1.059,1.417 C 18.772,16.921 18.187,16.071 17.366,15.55 17.643,15.22 18.042,15 18.5,15 Z m -3,2 C 16.327,17 17,17.673 17,18.5 17,19.327 16.327,20 15.5,20 14.673,20 14,19.327 14,18.5 14,17.673 14.673,17 15.5,17 Z M 2,18.955 V 16 h 4.72 c 1.95,0 3.823,0.659 5.345,1.857 C 12.026,18.066 12,18.28 12,18.5 c 0,1.627 1.121,2.986 2.628,3.377 -0.402,0.68 -0.628,1.465 -0.628,2.294 0,0.661 0.152,1.319 0.433,1.917 -0.256,0.043 -0.5,0.111 -0.742,0.189 l -1.547,-1.547 0.805,-2.414 -1.897,-0.633 -0.488,1.465 -1.42,-1.418 0.805,-2.414 -1.897,-0.633 -0.488,1.465 -1.856,-1.856 -1.414,1.414 1.856,1.856 -1.465,0.489 0.633,1.896 2.414,-0.804 1.314,1.314 -2.289,0.573 0.485,1.939 3.451,-0.862 1.182,1.182 C 11.138,27.92 10.583,28.741 10.278,29.685 5.43,28.424 2,24.052 2,18.955 Z M 22.875,67.173 21,67.923 19.125,67.173 C 17.834,66.657 17,65.425 17,64.034 c 0,-0.522 0.124,-1.045 0.357,-1.512 L 17.618,62 h 6.764 l 0.261,0.522 c 0.233,0.467 0.357,0.99 0.357,1.512 0,1.391 -0.834,2.623 -2.125,3.139 z M 28,57.586 C 28,58.917 26.917,60 25.586,60 H 16.414 C 15.083,60 14,58.917 14,57.586 V 57.414 C 14,56.898 14.168,56.41 14.466,56 H 27.533 C 27.832,56.41 28,56.898 28,57.414 Z m 2,-6 C 30,52.917 28.917,54 27.586,54 H 14.414 C 13.083,54 12,52.917 12,51.586 V 51.414 C 12,50.898 12.168,50.41 12.466,50 H 29.533 C 29.832,50.41 30,50.898 30,51.414 Z M 29.91,48 H 12.09 C 10.938,48 10,47.063 10,45.91 c 0,-0.797 0.443,-1.514 1.154,-1.869 L 11.236,44 h 19.528 l 0.081,0.04 C 31.557,44.396 32,45.113 32,45.91 32,47.063 31.063,48 29.91,48 Z M 34,39 c 0,1.654 -1.346,3 -3,3 H 11 C 9.346,42 8,40.654 8,39 8,37.346 9.346,36 11,36 h 20 c 1.654,0 3,1.346 3,3 z"
       id="path24" /></g></svg>
