<?xml version="1.0" encoding="UTF-8" standalone="no"?>
<svg
   viewBox="0 0 1000 1250"
   version="1.1"
   x="0px"
   y="0px"
   id="svg16"
   sodipodi:docname="noun_pastry_707808.svg"
   inkscape:version="1.1.1 (3bf5ae0d25, 2021-09-20)"
   xmlns:inkscape="http://www.inkscape.org/namespaces/inkscape"
   xmlns:sodipodi="http://sodipodi.sourceforge.net/DTD/sodipodi-0.dtd"
   xmlns="http://www.w3.org/2000/svg"
   xmlns:svg="http://www.w3.org/2000/svg">
  <defs
     id="defs20" />
  <sodipodi:namedview
     id="namedview18"
     pagecolor="#505050"
     bordercolor="#eeeeee"
     borderopacity="1"
     inkscape:pageshadow="0"
     inkscape:pageopacity="0"
     inkscape:pagecheckerboard="0"
     showgrid="false"
     inkscape:zoom="0.416"
     inkscape:cx="506.00962"
     inkscape:cy="688.70192"
     inkscape:window-width="1366"
     inkscape:window-height="705"
     inkscape:window-x="-8"
     inkscape:window-y="-8"
     inkscape:window-maximized="1"
     inkscape:current-layer="svg16" />
  <path
     fill="#000000"
     opacity="1"
     d="m 448.86,246.52 c 42.41,-4.44 85.47,-2.29 127.28,6.06 9.96,2.28 19.88,4.71 29.79,7.18 40.64,11.63 79.81,29.3 114.2,54.05 28.57,19.94 53.41,45.18 73.24,73.81 22.08,32.47 37.02,70.11 41.05,109.29 2.68,24.73 1.09,49.9 -4.46,74.14 4.5,2.82 7.29,7.44 10.16,11.76 8.32,13.34 12.19,29.98 8.1,45.41 -3.08,13.87 -11.66,25.73 -21.35,35.8 1.42,3.79 2.42,7.96 1.15,11.94 -27.38,94.68 -54.79,189.36 -82.18,284.04 -1.45,6.34 -7.18,11.44 -13.74,11.74 -156.05,-0.15 -312.12,0.01 -468.17,-0.09 -6.06,0.11 -11.87,-3.9 -13.97,-9.58 -29.79,-94.48 -59.74,-188.93 -89.61,-283.39 -1.94,-5.1 -3.41,-10.76 -1.16,-16.02 -4.06,-4.92 -8.57,-9.52 -11.93,-14.97 -2.36,-4.15 -3.77,-8.76 -5.98,-12.99 -2.9,-5.46 -2.75,-11.78 -3.61,-17.74 -1.5,-10.32 3.04,-20.08 7.03,-29.29 2.27,-5.58 6.38,-10.05 9.92,-14.83 -2.53,-11.51 -3.95,-23.24 -5.28,-34.94 -1.37,-10.93 -0.64,-21.98 -0.14,-32.94 0.82,-10.18 1.67,-20.41 4.17,-30.34 4.65,-19.2 10.36,-38.32 19.46,-55.93 5.39,-11.46 12.1,-22.24 19.16,-32.73 10.8,-14.66 22.23,-28.97 35.45,-41.54 22.66,-22.14 48.87,-40.47 76.86,-55.22 13.27,-7.25 27.39,-12.7 41.3,-18.58 16.08,-6.08 32.59,-10.99 49.28,-15.13 17.87,-3.63 35.75,-7.58 53.98,-8.97 m 5.06,29.64 c -17.52,1.21 -34.7,4.96 -51.86,8.46 -19.84,4.91 -39.48,10.86 -58.16,19.2 -13.16,5.34 -25.95,11.6 -38.16,18.86 -30.65,17.8 -58.55,40.77 -80.34,68.83 -19.21,23.77 -33.31,51.68 -40.68,81.36 -5.15,17.54 -6.19,35.95 -6.18,54.14 0.69,11.22 2.35,22.37 4.14,33.47 1.94,8.29 4.28,16.49 6.85,24.61 0.73,3.72 3.32,6.94 3.21,10.85 0.48,7.73 -6.03,14.99 -13.75,15.41 -3.81,0.45 -7.43,-1.1 -10.62,-3.01 -1.36,3.86 -0.91,7.97 0.07,11.87 1.69,5.81 3.77,11.72 7.98,16.22 4.9,6.75 11.99,11.36 17.43,17.59 198.73,0.06 397.46,0.01 596.19,0.02 2.18,0.24 3.8,-1.39 5.43,-2.55 7.86,-6.07 15.46,-12.95 20.07,-21.89 4.43,-6.68 5.2,-15.19 2.93,-22.77 -1.57,5.28 -5.03,10.38 -10.55,12.01 -7.92,2.86 -17.37,-2.36 -19.24,-10.54 -1.97,-7.71 3.38,-14.42 5.71,-21.37 2.21,-8.36 5.09,-16.54 6.87,-25.02 3.29,-15.06 4.75,-30.52 4.42,-45.93 -0.84,-39.63 -14.57,-78.34 -36.74,-111 -17.92,-25.89 -40.35,-48.75 -66.2,-66.75 C 669.95,314.72 632.51,297.95 593.59,287.58 548.24,275.35 500.66,271.45 453.92,276.16 M 193.48,684.01 c 27.2,85.9 54.29,171.84 81.57,257.72 10.47,-0.03 20.93,0.02 31.4,-0.03 -9.43,-65.3 -18.83,-130.6 -28.22,-195.89 -0.79,-5.01 1.15,-10.31 5.02,-13.58 4.45,-3.94 11.31,-4.76 16.57,-2.02 4.48,2.21 7.59,6.79 8.14,11.73 9.58,66.6 19.17,133.19 28.77,199.78 27.23,0.07 54.45,-0.14 81.67,0.11 -2.37,-63.6 -5.18,-127.19 -7.71,-190.79 -0.06,-5.04 -1.25,-10.44 1.16,-15.14 2.78,-5.92 9.73,-9.43 16.15,-8.16 6.75,1.09 12.17,7.33 12.28,14.18 2.78,66.6 5.46,133.2 8.2,199.8 31.94,0 63.88,0.01 95.81,-0.01 4.78,-63.87 9.58,-127.75 14.33,-191.62 0.2,-4.97 0.56,-10.43 4.27,-14.18 5.89,-6.84 17.81,-6.29 23.02,1.08 3.49,4.22 3.21,9.93 2.65,15.04 -4.77,63.22 -9.45,126.46 -14.22,189.68 25.77,0.02 51.55,0.02 77.32,0 11.35,-65.2 22.68,-130.41 34.02,-195.62 0.72,-5.06 4.19,-9.6 8.91,-11.55 5.76,-2.58 13.03,-0.95 17.14,3.84 3.31,3.62 4.41,8.84 3.37,13.59 -11.03,63.24 -21.98,126.5 -33.02,189.75 12.6,0.01 25.21,0 37.81,0 24.93,-85.89 49.71,-171.82 74.62,-257.72 -200.35,0 -400.69,-0.01 -601.03,0.01 z"
     id="path2" />
  <path
     fill="#000000"
     opacity="1"
     d="m 559.43,320.68 c 13.7,-1.53 28.15,2.2 39.17,10.58 4.06,2.87 6.57,7.84 6.24,12.83 -0.03,8.08 -7.72,15.02 -15.76,14.33 -5.21,0 -9.01,-3.92 -13.44,-6.02 -10.84,-4.72 -24.86,-1.13 -31.39,8.94 -4.06,6.81 -13.74,9.22 -20.46,4.95 -6.27,-3.58 -9.06,-12.02 -6.13,-18.63 4.13,-8.48 11.61,-14.64 19.33,-19.74 6.8,-4.13 14.61,-6.19 22.44,-7.24 z"
     id="path4" />
  <path
     fill="#000000"
     opacity="1"
     d="m 359.21,357.22 c 5.87,-1.37 11.94,-0.68 17.87,-0.08 12.07,1.2 23.11,7.61 31.58,16.08 5.05,5.47 4.86,14.79 -0.4,20.06 -4.5,4.98 -12.51,6.24 -18.28,2.79 -4.11,-2.52 -7.35,-6.39 -11.95,-8.11 -9.23,-3.11 -20.42,-1.43 -27.41,5.68 -4.95,4.36 -5.23,12.28 -11.3,15.63 -7.63,5.2 -19.24,1.21 -22.1,-7.55 -2.37,-5.88 0.34,-12.04 3.25,-17.16 7.51,-14.69 22.63,-24.62 38.74,-27.34 z"
     id="path6" />
  <path
     fill="#000000"
     opacity="1"
     d="m 482.49,380.76 c 4.28,-0.63 8.66,-0.82 12.94,-0.01 9.15,1.52 18.71,3.71 25.98,9.83 5.61,5.03 6.22,14.45 1.42,20.23 -4.21,5.47 -12.46,7.34 -18.53,3.95 -7.84,-4.69 -18.08,-6.06 -26.45,-1.93 -5.88,2.57 -9.57,8.15 -12.69,13.49 -4.04,6.47 -13.44,8.46 -19.87,4.48 -5.95,-3.32 -8.89,-10.99 -6.73,-17.45 2.12,-5.64 5.71,-10.6 9.78,-14.99 8.49,-10.06 21.16,-16.15 34.15,-17.6 z"
     id="path8" />
  <path
     fill="#000000"
     opacity="1"
     d="m 612.48,402.57 c 12.27,-1.43 25.22,0.5 35.77,7.21 5.37,3.02 10.59,6.61 14.25,11.66 3.77,5.1 8.49,10.75 7.34,17.58 -0.98,9.37 -11.98,15.75 -20.58,11.78 -5.04,-1.74 -7.33,-6.78 -10.28,-10.77 -8.11,-8.62 -22.15,-10.41 -32.29,-4.32 -5.11,2.72 -7.68,8.78 -13.37,10.57 -6.83,2.56 -15.16,-0.74 -18.34,-7.3 -3,-5.59 -1.8,-12.89 2.63,-17.39 8.72,-10.47 21.46,-17.05 34.87,-19.02 z"
     id="path10" />
</svg>
