<?xml version="1.0" encoding="UTF-8" standalone="no"?>
<svg
   viewBox="0 0 64 80"
   x="0px"
   y="0px"
   version="1.1"
   id="svg12"
   sodipodi:docname="payment.svg"
   inkscape:version="1.1.1 (3bf5ae0d25, 2021-09-20)"
   xmlns:inkscape="http://www.inkscape.org/namespaces/inkscape"
   xmlns:sodipodi="http://sodipodi.sourceforge.net/DTD/sodipodi-0.dtd"
   xmlns="http://www.w3.org/2000/svg"
   xmlns:svg="http://www.w3.org/2000/svg">
  <defs
     id="defs16" />
  <sodipodi:namedview
     id="namedview14"
     pagecolor="#505050"
     bordercolor="#eeeeee"
     borderopacity="1"
     inkscape:pageshadow="0"
     inkscape:pageopacity="0"
     inkscape:pagecheckerboard="0"
     showgrid="false"
     inkscape:zoom="6.5"
     inkscape:cx="31.923077"
     inkscape:cy="30.846154"
     inkscape:window-width="1366"
     inkscape:window-height="705"
     inkscape:window-x="-8"
     inkscape:window-y="-8"
     inkscape:window-maximized="1"
     inkscape:current-layer="svg12" />
  <title
     id="title2">payment, money, pay, euro, hand</title>
  <g
     data-name="Hand Euro"
     id="g6"
     transform="matrix(1.057072,0,0,1.057072,-1.7518647,6.173696)">
    <path
       d="M 44,31 A 15,15 0 1 0 29,16 15.017,15.017 0 0 0 44,31 Z M 37,16 a 8.047,8.047 0 0 1 0.069,-1 H 36 a 1,1 0 0 1 0,-2 h 1.589 A 8.009,8.009 0 0 1 45,8 7.752,7.752 0 0 1 49.587,9.47 1,1 0 1 1 48.413,11.089 5.764,5.764 0 0 0 45,10 6,6 0 0 0 39.812,13 H 46 a 1,1 0 0 1 0,2 h -6.91 a 5.6,5.6 0 0 0 0,2 H 46 a 1,1 0 0 1 0,2 H 39.812 A 6,6 0 0 0 45,22 5.848,5.848 0 0 0 48.419,20.916 1.0000785,1.0000785 0 0 1 49.581,22.544 7.83,7.83 0 0 1 45,24 8.009,8.009 0 0 1 37.589,19 H 36 a 1,1 0 0 1 0,-2 h 1.069 A 8.047,8.047 0 0 1 37,16 Z m 25,18.83 a 3.838,3.838 0 0 1 -1.12,2.71 L 47.71,50.71 A 1.033,1.033 0 0 1 47,51 H 26.41 L 23.83,53.59 11.41,41.17 18.29,34.29 A 1.033,1.033 0 0 1 19,34 h 20.5 a 3.5,3.5 0 0 1 0,7 H 29 a 1,1 0 0 0 0,2 H 44.59 L 55.46,32.12 a 3.93,3.93 0 0 1 5.42,0 3.821,3.821 0 0 1 1.12,2.71 z M 24.707,57.293 a 1,1 0 0 1 0,1.414 l -3,3 a 1,1 0 0 1 -1.414,0 l -17,-17 a 1,1 0 0 1 0,-1.414 l 3,-3 a 1,1 0 0 1 1.414,0 z M 3.17,47.41 17.59,61.83 16.71,62.71 A 1.033,1.033 0 0 1 16,63 H 3 A 1,1 0 0 1 2,62 V 49 a 1.033,1.033 0 0 1 0.29,-0.71 z"
       id="path4" />
  </g>
</svg>
